<svg id="svg" version="1.1" xmlns="http://www.w3.org/2000/svg" xmlns:xlink="http://www.w3.org/1999/xlink" width="400" height="423.79603399433427" viewBox="0, 0, 400,423.79603399433427"><g id="svgg"><path id="path0" d="M151.047 3.487 C 150.889 3.644,150.364 3.793,149.880 3.816 C 149.396 3.840,148.550 3.976,148.000 4.119 C 147.450 4.262,146.100 4.447,145.000 4.530 C 143.900 4.613,142.493 4.888,141.874 5.141 C 141.255 5.393,140.256 5.600,139.654 5.600 C 139.052 5.600,138.318 5.825,138.021 6.100 C 137.583 6.507,137.545 6.488,137.818 6.000 C 138.086 5.521,138.037 5.491,137.577 5.848 C 137.260 6.094,136.325 6.417,135.500 6.566 C 134.675 6.715,134.000 6.970,134.000 7.132 C 134.000 7.295,133.685 7.459,133.300 7.496 C 131.945 7.627,130.989 7.859,129.874 8.327 C 129.255 8.587,128.590 8.800,128.397 8.800 C 128.204 8.800,127.405 9.178,126.623 9.640 C 125.840 10.101,125.200 10.376,125.200 10.251 C 125.200 9.932,121.607 11.875,120.650 12.712 C 120.217 13.090,120.005 13.157,120.180 12.860 C 120.565 12.203,119.009 12.938,118.595 13.609 C 118.457 13.831,118.177 13.909,117.972 13.783 C 117.768 13.656,117.600 13.724,117.600 13.933 C 117.600 14.142,117.143 14.428,116.584 14.568 C 116.025 14.709,115.678 15.003,115.813 15.222 C 115.949 15.441,115.911 15.594,115.730 15.563 C 114.970 15.431,114.462 15.653,113.362 16.602 C 112.723 17.154,111.840 17.717,111.400 17.853 C 110.621 18.095,110.379 18.273,108.500 19.981 C 108.005 20.432,107.497 20.785,107.371 20.767 C 106.953 20.708,103.737 23.788,103.481 24.493 C 103.336 24.895,102.985 25.092,102.646 24.962 C 102.303 24.830,101.879 25.079,101.619 25.565 C 101.375 26.020,101.046 26.349,100.888 26.296 C 100.597 26.199,98.800 27.834,98.800 28.195 C 98.800 28.682,96.920 30.636,93.597 33.603 C 92.939 34.190,92.400 34.981,92.400 35.359 C 92.400 35.738,92.232 35.944,92.028 35.817 C 91.823 35.691,91.525 35.798,91.366 36.055 C 91.185 36.348,91.250 36.416,91.538 36.238 C 91.792 36.081,92.000 36.115,92.000 36.312 C 92.000 36.510,91.550 36.877,91.000 37.127 C 90.450 37.378,90.000 37.779,90.000 38.018 C 90.000 38.258,89.372 39.116,88.603 39.927 C 87.835 40.737,87.205 41.616,87.203 41.880 C 87.202 42.144,86.914 42.520,86.564 42.716 C 86.214 42.912,85.961 43.206,86.001 43.369 C 86.041 43.532,85.652 44.146,85.137 44.733 C 83.782 46.276,82.800 47.883,82.800 48.557 C 82.800 48.879,82.517 49.426,82.171 49.771 C 81.826 50.117,81.658 50.400,81.799 50.400 C 81.939 50.400,81.682 50.923,81.227 51.562 C 80.772 52.201,80.400 52.927,80.400 53.176 C 80.400 53.700,79.197 55.674,78.637 56.068 C 78.428 56.215,78.215 56.617,78.165 56.960 C 78.114 57.303,77.787 57.870,77.437 58.221 C 77.086 58.571,76.794 59.249,76.787 59.729 C 76.780 60.208,76.510 60.949,76.187 61.376 C 75.864 61.804,75.600 62.479,75.600 62.876 C 75.600 63.274,75.390 63.600,75.133 63.600 C 74.877 63.600,74.780 63.714,74.919 63.853 C 75.058 63.992,74.960 64.487,74.700 64.953 C 74.441 65.419,74.206 65.890,74.180 66.000 C 74.153 66.110,73.991 66.518,73.820 66.906 C 73.650 67.294,73.603 67.969,73.717 68.406 C 73.832 68.843,73.779 69.200,73.600 69.200 C 73.421 69.200,73.376 69.588,73.500 70.063 C 73.655 70.654,73.580 70.835,73.263 70.639 C 73.008 70.482,72.793 70.408,72.785 70.476 C 72.515 72.688,72.233 73.849,71.919 74.046 C 71.703 74.182,71.434 74.992,71.321 75.846 C 71.209 76.701,71.047 77.473,70.962 77.563 C 70.877 77.653,71.011 77.972,71.260 78.272 C 71.618 78.704,71.575 78.765,71.057 78.566 C 70.695 78.428,70.389 78.379,70.375 78.457 C 70.361 78.536,70.258 79.410,70.146 80.400 C 70.033 81.390,69.660 82.793,69.317 83.518 C 68.869 84.461,68.754 85.514,68.909 87.226 C 69.062 88.914,68.971 89.772,68.600 90.143 C 68.013 90.729,67.652 97.750,68.151 98.848 C 68.332 99.247,68.195 99.748,67.794 100.148 C 67.436 100.507,67.336 100.800,67.571 100.800 C 68.189 100.800,68.100 101.876,67.462 102.121 C 66.818 102.368,66.820 109.505,67.464 109.936 C 68.268 110.474,68.465 111.709,67.705 111.444 C 67.123 111.241,67.138 111.305,67.790 111.809 C 68.408 112.287,68.487 112.570,68.154 113.110 C 67.919 113.489,67.770 114.250,67.822 114.800 C 67.874 115.350,67.971 117.291,68.038 119.112 C 68.121 121.388,68.302 122.370,68.615 122.249 C 68.938 122.126,69.021 122.802,68.901 124.554 C 68.781 126.291,68.921 127.447,69.371 128.416 C 69.723 129.177,69.921 129.476,69.810 129.079 C 69.700 128.683,69.756 128.449,69.936 128.561 C 70.116 128.672,70.218 129.580,70.161 130.578 C 70.085 131.922,70.229 132.489,70.717 132.761 C 71.193 133.028,71.343 133.574,71.259 134.735 C 71.192 135.666,71.394 136.732,71.740 137.271 C 72.069 137.782,72.427 138.794,72.537 139.521 C 72.647 140.247,72.947 141.095,73.203 141.403 C 73.459 141.712,73.560 142.140,73.428 142.355 C 73.295 142.569,73.362 142.853,73.576 142.985 C 73.790 143.117,73.860 143.499,73.732 143.833 C 73.604 144.167,73.847 144.837,74.274 145.320 C 74.700 145.804,75.029 146.695,75.006 147.300 C 74.982 147.905,75.071 148.400,75.202 148.400 C 75.334 148.400,75.771 149.345,76.172 150.500 C 76.574 151.655,77.187 153.050,77.535 153.600 C 77.884 154.150,78.199 154.787,78.237 155.017 C 78.335 155.620,80.911 159.776,81.284 159.933 C 81.458 160.007,81.600 160.480,81.600 160.984 C 81.600 161.489,81.852 162.111,82.161 162.367 C 82.469 162.623,82.834 163.283,82.972 163.833 C 83.124 164.436,83.402 164.722,83.674 164.555 C 83.924 164.400,84.014 164.454,83.875 164.678 C 83.560 165.188,85.375 167.692,85.772 167.295 C 85.934 167.133,86.030 167.180,85.986 167.400 C 85.815 168.246,86.039 168.736,87.194 170.046 C 87.850 170.791,88.390 171.535,88.394 171.700 C 88.397 171.865,88.670 172.000,89.000 172.000 C 89.330 172.000,89.600 172.341,89.600 172.757 C 89.600 173.174,89.870 173.618,90.200 173.745 C 90.530 173.871,90.800 174.261,90.800 174.611 C 90.800 174.961,90.948 175.156,91.129 175.044 C 91.309 174.932,91.759 175.194,92.129 175.625 C 92.923 176.553,92.999 176.963,92.300 176.555 C 91.723 176.217,92.762 177.542,94.768 179.700 C 95.535 180.525,96.426 181.200,96.748 181.200 C 97.070 181.200,97.228 181.305,97.099 181.434 C 96.830 181.704,101.544 186.800,102.063 186.800 C 102.386 186.800,103.555 187.744,105.963 189.950 C 106.533 190.472,107.660 191.320,108.466 191.834 C 109.273 192.347,110.049 192.955,110.190 193.184 C 110.331 193.413,110.827 193.600,111.290 193.600 C 111.754 193.600,112.014 193.719,111.869 193.864 C 111.724 194.010,111.932 194.325,112.331 194.564 C 112.731 194.804,114.214 195.763,115.629 196.696 C 117.043 197.629,118.504 198.394,118.876 198.396 C 119.248 198.398,119.654 198.564,119.779 198.765 C 120.059 199.219,123.282 200.800,123.926 200.800 C 124.187 200.800,124.400 200.980,124.400 201.200 C 124.400 201.420,124.535 201.570,124.700 201.534 C 125.318 201.399,127.200 202.101,127.200 202.467 C 127.200 202.676,127.338 202.762,127.508 202.657 C 127.677 202.553,128.532 202.806,129.408 203.220 C 130.283 203.634,131.591 203.979,132.313 203.986 C 133.034 203.994,133.714 204.231,133.822 204.514 C 133.931 204.796,134.420 205.068,134.910 205.117 C 136.557 205.285,137.117 205.433,137.660 205.848 C 137.957 206.075,138.963 206.247,139.895 206.230 C 140.872 206.213,141.669 206.404,141.775 206.681 C 141.877 206.945,142.325 207.091,142.772 207.005 C 143.218 206.919,143.673 206.995,143.783 207.172 C 143.893 207.350,144.841 207.521,145.891 207.553 C 148.201 207.623,148.848 207.727,149.500 208.135 C 149.775 208.307,150.000 208.267,150.000 208.047 C 150.000 207.605,151.251 207.763,152.800 208.401 C 154.336 209.034,313.047 208.758,314.473 208.120 C 315.308 207.747,315.583 207.747,315.708 208.120 C 315.828 208.475,316.051 208.451,316.564 208.027 C 317.004 207.664,318.076 207.473,319.495 207.506 C 320.726 207.534,322.108 207.346,322.567 207.089 C 323.025 206.831,323.850 206.580,324.400 206.529 C 326.874 206.303,328.307 206.003,329.700 205.418 C 330.525 205.072,331.200 204.886,331.200 205.005 C 331.200 205.124,331.734 204.944,332.387 204.607 C 333.039 204.269,334.025 203.956,334.577 203.910 C 335.129 203.864,335.669 203.596,335.778 203.314 C 335.886 203.031,336.501 202.800,337.145 202.800 C 337.788 202.800,338.409 202.553,338.525 202.250 C 338.642 201.947,339.156 201.694,339.668 201.687 C 340.846 201.671,344.400 200.089,344.400 199.581 C 344.400 199.372,344.535 199.238,344.700 199.285 C 344.865 199.332,345.450 199.115,346.000 198.804 C 346.550 198.493,347.213 198.203,347.473 198.159 C 347.733 198.115,348.958 197.386,350.196 196.539 C 351.433 195.693,353.108 194.664,353.917 194.252 C 354.727 193.841,355.693 193.154,356.064 192.726 C 356.435 192.298,356.888 191.954,357.070 191.962 C 357.400 191.977,359.501 190.290,361.523 188.386 C 362.115 187.828,363.200 186.950,363.933 186.435 C 365.748 185.160,368.378 182.327,368.390 181.633 C 368.395 181.322,368.500 181.167,368.623 181.290 C 368.880 181.546,371.600 178.849,371.600 178.339 C 371.600 178.152,371.858 178.000,372.173 178.000 C 372.488 178.000,372.860 177.640,373.000 177.200 C 373.140 176.760,373.422 176.400,373.627 176.400 C 373.832 176.400,374.000 176.136,374.000 175.814 C 374.000 175.492,374.315 175.056,374.700 174.847 C 375.085 174.637,376.120 173.443,377.000 172.194 C 377.880 170.944,378.838 169.670,379.129 169.361 C 379.419 169.052,379.532 168.800,379.380 168.800 C 379.227 168.800,379.303 168.558,379.548 168.263 C 379.793 167.968,379.905 167.638,379.797 167.530 C 379.689 167.423,380.006 167.118,380.502 166.853 C 381.461 166.339,382.800 164.309,382.800 163.368 C 382.800 163.055,382.947 162.800,383.126 162.800 C 383.306 162.800,383.981 161.675,384.626 160.300 C 385.272 158.925,385.911 157.710,386.046 157.600 C 386.181 157.490,386.419 156.995,386.573 156.500 C 386.728 156.005,386.983 155.600,387.142 155.600 C 387.300 155.600,387.458 155.222,387.493 154.760 C 387.528 154.298,387.881 153.674,388.278 153.373 C 388.675 153.072,388.844 152.820,388.654 152.813 C 388.464 152.806,388.573 152.395,388.898 151.900 C 389.880 150.401,391.579 145.889,391.319 145.470 C 391.184 145.250,391.281 145.203,391.538 145.362 C 391.931 145.604,392.167 144.048,391.966 142.545 C 391.947 142.404,392.123 142.172,392.356 142.027 C 392.589 141.883,392.846 141.413,392.928 140.983 C 393.260 139.223,393.735 137.767,394.155 137.223 C 394.500 136.776,394.481 136.718,394.070 136.965 C 393.663 137.210,393.627 137.113,393.917 136.542 C 394.682 135.032,395.134 133.200,394.742 133.200 C 394.528 133.200,394.466 133.017,394.604 132.793 C 394.742 132.570,394.991 132.471,395.157 132.573 C 395.323 132.676,395.502 131.825,395.554 130.682 C 395.611 129.418,395.864 128.484,396.199 128.296 C 396.595 128.075,396.729 127.229,396.675 125.294 C 396.615 123.142,396.748 122.452,397.337 121.863 C 397.972 121.228,398.056 120.600,397.937 117.362 C 397.862 115.293,397.935 113.600,398.100 113.600 C 398.265 113.600,398.400 113.409,398.400 113.176 C 398.400 112.943,398.220 112.864,398.000 113.000 C 397.767 113.144,397.600 112.737,397.600 112.024 C 397.600 111.351,397.780 110.800,398.000 110.800 C 398.220 110.800,398.400 111.100,398.400 111.467 C 398.400 111.833,398.511 112.023,398.646 111.887 C 398.782 111.752,398.686 111.049,398.434 110.325 C 398.125 109.438,398.110 108.963,398.387 108.871 C 398.908 108.697,398.940 102.800,398.421 102.800 C 398.190 102.800,398.204 102.334,398.457 101.609 C 398.685 100.953,398.780 100.188,398.668 99.909 C 398.555 99.629,398.449 99.816,398.432 100.324 C 398.385 101.675,397.729 101.043,397.688 99.607 C 397.669 98.935,397.821 98.489,398.027 98.616 C 398.232 98.743,398.400 98.657,398.400 98.424 C 398.400 98.191,398.265 98.000,398.100 98.001 C 397.935 98.001,397.858 96.371,397.929 94.377 C 398.017 91.898,397.900 90.562,397.559 90.150 C 397.284 89.820,397.000 88.885,396.927 88.074 C 396.855 87.263,396.727 85.862,396.644 84.959 C 396.560 84.057,396.299 82.959,396.063 82.518 C 395.711 81.859,395.409 80.328,395.229 78.276 C 395.213 78.098,395.020 78.064,394.800 78.200 C 394.468 78.405,394.155 75.952,394.353 74.700 C 394.379 74.535,394.240 74.400,394.045 74.400 C 393.850 74.400,393.580 73.860,393.445 73.200 C 393.310 72.540,393.090 71.460,392.955 70.800 C 392.820 70.140,392.539 69.600,392.331 69.600 C 392.123 69.600,392.065 69.418,392.203 69.195 C 392.341 68.972,392.184 68.249,391.854 67.588 C 391.464 66.807,391.420 66.469,391.727 66.623 C 391.987 66.753,391.930 66.621,391.600 66.330 C 391.061 65.854,390.858 65.251,390.713 63.700 C 390.688 63.425,390.517 63.200,390.333 63.200 C 390.150 63.200,390.000 62.763,390.000 62.229 C 390.000 61.694,389.760 61.018,389.467 60.725 C 389.175 60.432,388.811 59.699,388.660 59.096 C 388.509 58.493,388.208 58.000,387.992 58.000 C 387.777 58.000,387.599 57.775,387.598 57.500 C 387.596 57.225,387.355 56.550,387.062 56.000 C 381.498 45.569,380.181 43.441,379.536 43.839 C 379.351 43.954,379.198 43.632,379.195 43.124 C 379.192 42.605,378.490 41.446,377.595 40.483 C 376.718 39.538,376.000 38.625,376.000 38.454 C 376.000 38.283,375.190 37.298,374.200 36.265 C 373.210 35.231,372.400 34.119,372.400 33.793 C 372.400 33.244,371.901 33.014,371.051 33.169 C 370.859 33.204,370.816 32.935,370.955 32.572 C 371.141 32.087,371.042 31.975,370.584 32.151 C 370.240 32.283,370.055 32.234,370.174 32.042 C 370.529 31.468,363.750 24.660,363.177 25.014 C 362.882 25.197,362.777 25.160,362.922 24.926 C 363.057 24.708,362.459 24.005,361.593 23.365 C 360.727 22.724,360.015 22.065,360.009 21.900 C 360.004 21.735,359.724 21.600,359.387 21.600 C 359.051 21.600,358.674 21.337,358.550 21.015 C 358.427 20.694,357.977 20.320,357.551 20.184 C 357.124 20.049,356.331 19.459,355.788 18.873 C 355.244 18.287,354.800 17.940,354.800 18.100 C 354.800 18.261,354.434 18.079,353.987 17.696 C 353.540 17.313,353.076 17.057,352.957 17.126 C 352.837 17.196,352.435 16.926,352.063 16.526 C 351.691 16.127,350.760 15.457,349.994 15.037 C 346.718 13.245,344.969 12.403,344.520 12.402 C 344.256 12.401,343.856 12.085,343.632 11.700 C 343.408 11.315,343.219 11.156,343.212 11.346 C 343.205 11.536,342.737 11.388,342.170 11.017 C 341.204 10.384,340.029 9.981,338.918 9.901 C 338.652 9.882,338.525 9.722,338.634 9.545 C 338.743 9.368,338.330 9.103,337.716 8.957 C 337.102 8.810,336.394 8.528,336.143 8.331 C 335.891 8.134,335.131 7.903,334.454 7.817 C 333.777 7.731,332.992 7.517,332.711 7.342 C 332.146 6.989,331.454 6.815,330.100 6.686 C 329.605 6.639,329.200 6.454,329.200 6.276 C 329.200 6.098,329.020 6.064,328.800 6.200 C 328.580 6.336,328.400 6.290,328.400 6.098 C 328.400 5.906,327.551 5.706,326.513 5.652 C 325.476 5.598,324.361 5.339,324.037 5.077 C 323.555 4.688,323.511 4.710,323.800 5.200 C 324.110 5.726,324.066 5.729,323.447 5.226 C 323.058 4.910,321.988 4.594,321.070 4.524 C 319.199 4.380,316.906 3.985,316.000 3.650 C 314.749 3.187,153.598 3.173,152.734 3.635 C 152.137 3.955,151.980 3.956,152.175 3.640 C 152.474 3.157,151.507 3.026,151.047 3.487 M312.800 35.800 C 313.144 36.215,314.060 36.400,315.769 36.400 C 317.128 36.400,318.442 36.602,318.689 36.849 C 318.936 37.096,319.917 37.384,320.869 37.490 C 321.821 37.596,322.884 37.934,323.231 38.242 C 323.579 38.549,324.299 38.802,324.831 38.804 C 325.364 38.806,326.700 39.250,327.800 39.791 C 328.900 40.332,330.183 40.781,330.651 40.787 C 331.119 40.794,331.726 41.070,332.000 41.400 C 332.274 41.730,332.765 42.000,333.091 42.000 C 333.418 42.000,334.423 42.585,335.326 43.300 C 336.229 44.015,337.002 44.510,337.045 44.400 C 337.087 44.290,337.764 44.785,338.550 45.500 C 339.336 46.215,340.178 46.800,340.422 46.800 C 340.666 46.800,341.632 47.428,342.570 48.196 C 343.507 48.965,344.392 49.475,344.537 49.330 C 344.682 49.185,344.800 49.457,344.800 49.933 C 344.800 50.410,344.980 50.823,345.200 50.850 C 345.420 50.877,345.742 50.923,345.916 50.950 C 346.570 51.053,352.398 56.966,352.634 57.766 C 352.769 58.225,353.492 59.176,354.240 59.880 C 354.988 60.583,355.600 61.495,355.600 61.905 C 355.600 62.315,356.140 63.168,356.800 63.800 C 357.460 64.432,358.000 65.185,358.000 65.472 C 358.000 65.759,358.352 66.400,358.781 66.897 C 359.521 67.752,361.341 70.936,361.583 71.800 C 361.645 72.020,361.854 72.617,362.048 73.126 C 362.242 73.635,362.400 74.288,362.400 74.577 C 362.400 74.866,362.670 75.326,363.000 75.600 C 363.330 75.874,363.600 76.414,363.600 76.800 C 363.600 77.186,363.870 77.726,364.200 78.000 C 364.530 78.274,364.800 78.995,364.800 79.603 C 364.800 80.211,365.069 81.224,365.398 81.854 C 365.726 82.484,365.996 83.315,365.998 83.700 C 365.999 84.085,366.180 84.400,366.400 84.400 C 366.620 84.400,366.800 85.098,366.800 85.951 C 366.800 86.842,367.055 87.714,367.400 88.000 C 367.798 88.330,368.000 89.226,368.000 90.662 C 368.000 92.216,368.169 92.890,368.600 93.055 C 368.930 93.182,369.200 93.457,369.200 93.666 C 369.200 93.876,368.975 93.912,368.700 93.747 C 368.314 93.515,368.317 93.590,368.711 94.077 C 369.395 94.922,369.393 117.869,368.709 118.097 C 368.463 118.179,368.179 119.398,368.077 120.806 C 367.975 122.213,367.646 123.611,367.346 123.911 C 367.046 124.211,366.800 124.978,366.800 125.615 C 366.800 126.644,366.200 128.421,365.151 130.495 C 364.958 130.877,364.800 131.732,364.800 132.395 C 364.800 133.058,364.634 133.600,364.432 133.600 C 364.229 133.600,363.945 134.140,363.800 134.800 C 363.655 135.460,363.385 136.000,363.200 136.000 C 363.015 136.000,362.737 136.585,362.582 137.300 C 362.426 138.015,362.120 138.715,361.900 138.855 C 361.680 138.995,361.449 139.576,361.386 140.147 C 361.323 140.718,360.986 141.471,360.636 141.821 C 360.286 142.171,360.000 142.785,360.000 143.187 C 360.000 143.588,359.553 144.340,359.007 144.858 C 358.461 145.376,358.011 146.049,358.007 146.354 C 358.003 146.659,357.595 147.296,357.100 147.770 C 356.605 148.245,355.862 149.290,355.450 150.093 C 355.037 150.896,354.452 151.648,354.150 151.764 C 353.847 151.880,353.600 152.231,353.600 152.545 C 353.600 152.858,353.330 153.218,353.000 153.345 C 352.670 153.471,352.400 153.810,352.400 154.096 C 352.400 154.383,350.870 156.140,349.000 158.000 C 347.130 159.860,345.600 161.225,345.600 161.032 C 345.600 160.839,345.074 161.232,344.431 161.905 C 343.788 162.578,343.190 163.056,343.102 162.968 C 343.014 162.880,342.426 163.346,341.796 164.004 C 341.166 164.662,340.364 165.200,340.014 165.200 C 339.664 165.200,338.911 165.732,338.340 166.383 C 337.769 167.034,337.061 167.619,336.767 167.683 C 336.223 167.802,335.619 168.200,334.615 169.100 C 334.308 169.375,333.833 169.600,333.560 169.600 C 333.287 169.600,332.779 169.853,332.431 170.163 C 332.084 170.473,331.260 170.783,330.600 170.853 C 329.940 170.923,328.974 171.297,328.453 171.685 C 327.932 172.072,327.368 172.304,327.198 172.199 C 327.029 172.094,326.668 172.277,326.396 172.604 C 326.124 172.932,325.395 173.200,324.775 173.200 C 324.155 173.200,323.546 173.364,323.422 173.565 C 323.242 173.856,320.958 174.450,319.533 174.576 C 319.387 174.589,319.132 174.735,318.967 174.900 C 318.802 175.065,317.540 175.200,316.162 175.200 C 314.469 175.200,313.463 175.394,313.057 175.800 C 312.269 176.588,303.653 176.672,302.821 175.900 C 302.383 175.494,302.344 175.512,302.610 176.000 C 302.847 176.435,302.717 176.407,302.137 175.900 C 301.560 175.395,300.648 175.200,298.869 175.200 C 297.511 175.200,296.400 175.043,296.400 174.852 C 296.400 174.660,295.507 174.385,294.416 174.240 C 293.325 174.095,292.325 173.802,292.193 173.588 C 292.061 173.375,291.355 173.200,290.625 173.200 C 289.895 173.200,289.074 172.930,288.800 172.600 C 288.526 172.270,287.986 172.000,287.600 172.000 C 287.214 172.000,286.674 171.730,286.400 171.400 C 286.126 171.070,285.519 170.799,285.051 170.798 C 283.540 170.795,277.032 167.051,276.280 165.753 C 276.104 165.449,275.645 165.200,275.261 165.200 C 274.876 165.200,273.580 164.213,272.381 163.006 C 271.181 161.799,269.915 160.809,269.566 160.806 C 268.534 160.796,261.764 153.186,259.990 150.041 C 259.654 149.446,258.979 148.529,258.490 148.004 C 258.000 147.479,257.600 146.827,257.600 146.555 C 257.600 146.284,257.181 145.553,256.668 144.931 C 255.825 143.908,255.112 142.541,255.293 142.296 C 255.332 142.243,255.071 141.660,254.713 141.000 C 254.355 140.340,253.960 139.530,253.834 139.200 C 253.708 138.870,253.424 138.285,253.203 137.900 C 252.981 137.515,252.619 136.885,252.397 136.500 C 252.176 136.115,251.893 135.530,251.768 135.200 C 251.644 134.870,251.375 134.287,251.171 133.905 C 250.967 133.523,250.800 132.771,250.800 132.234 C 250.800 131.697,250.547 131.004,250.237 130.694 C 249.928 130.385,249.613 129.607,249.537 128.966 C 249.462 128.325,249.175 127.562,248.900 127.271 C 248.625 126.981,248.400 126.140,248.400 125.404 C 248.400 123.843,248.041 122.727,247.623 122.986 C 247.462 123.085,247.291 122.080,247.243 120.751 C 247.195 119.423,246.986 117.890,246.779 117.345 C 246.532 116.694,246.539 116.439,246.801 116.601 C 247.382 116.960,247.266 116.321,246.587 115.424 C 245.732 114.293,245.729 98.214,246.583 96.567 C 246.983 95.797,247.040 95.289,246.764 94.957 C 246.492 94.629,246.498 94.387,246.781 94.212 C 247.011 94.069,247.200 92.923,247.200 91.665 C 247.200 90.407,247.433 89.023,247.718 88.589 C 248.002 88.155,248.290 87.170,248.358 86.400 C 248.425 85.630,248.654 84.892,248.865 84.761 C 249.077 84.629,249.346 83.915,249.463 83.175 C 249.580 82.434,249.928 81.467,250.238 81.025 C 250.547 80.583,250.800 79.733,250.800 79.135 C 250.800 78.537,250.980 77.936,251.200 77.800 C 251.420 77.664,251.600 77.203,251.600 76.776 C 251.600 76.349,251.766 76.000,251.968 76.000 C 252.171 76.000,252.455 75.460,252.600 74.800 C 252.745 74.140,253.010 73.600,253.188 73.600 C 253.367 73.600,253.637 73.106,253.789 72.502 C 253.940 71.898,254.266 71.161,254.514 70.863 C 254.761 70.566,255.021 69.942,255.091 69.478 C 255.162 69.014,255.351 68.537,255.510 68.417 C 255.917 68.112,256.717 66.815,257.375 65.392 C 257.682 64.727,258.309 63.845,258.767 63.430 C 259.225 63.015,259.600 62.516,259.600 62.321 C 259.600 61.935,260.016 61.389,261.700 59.564 C 262.305 58.909,262.800 58.218,262.800 58.029 C 262.800 57.840,263.081 57.578,263.425 57.446 C 263.769 57.314,263.953 57.048,263.834 56.855 C 263.585 56.452,268.727 51.201,269.373 51.198 C 269.608 51.197,270.827 50.207,272.083 48.998 C 273.338 47.789,274.634 46.800,274.962 46.800 C 275.291 46.800,276.074 46.249,276.704 45.576 C 277.333 44.902,278.107 44.307,278.424 44.253 C 278.741 44.200,280.012 43.500,281.249 42.698 C 282.486 41.897,284.016 41.122,284.649 40.977 C 286.352 40.587,288.800 39.493,288.800 39.123 C 288.800 38.945,289.408 38.800,290.151 38.800 C 290.894 38.800,291.726 38.530,292.000 38.200 C 292.296 37.843,293.171 37.600,294.160 37.600 C 295.074 37.600,296.186 37.345,296.632 37.033 C 297.077 36.721,298.513 36.421,299.821 36.367 C 301.129 36.313,302.555 36.029,302.989 35.735 C 304.166 34.937,312.128 34.990,312.800 35.800 M88.800 247.400 C 87.634 248.066,86.644 248.176,87.000 247.600 C 87.136 247.380,87.067 247.200,86.847 247.200 C 86.627 247.200,86.344 247.367,86.218 247.571 C 85.859 248.152,87.385 248.462,88.506 248.036 C 89.062 247.824,89.596 247.730,89.692 247.826 C 89.788 247.921,89.867 247.730,89.867 247.400 C 89.867 247.070,89.852 246.806,89.833 246.814 C 89.815 246.822,89.350 247.086,88.800 247.400 M95.061 247.708 C 94.338 248.461,94.343 248.472,95.261 248.195 C 96.511 247.816,96.976 247.349,96.327 247.122 C 96.037 247.021,95.467 247.284,95.061 247.708 M78.933 248.600 C 78.933 248.930,79.143 249.200,79.400 249.200 C 79.657 249.200,79.867 248.930,79.867 248.600 C 79.867 248.270,79.657 248.000,79.400 248.000 C 79.143 248.000,78.933 248.270,78.933 248.600 M128.400 262.295 C 128.400 262.684,130.014 263.719,130.251 263.482 C 130.347 263.386,129.969 263.010,129.412 262.645 C 128.856 262.280,128.400 262.122,128.400 262.295 M35.484 286.100 C 35.007 286.457,34.926 286.772,35.201 287.200 C 35.414 287.530,35.613 287.665,35.644 287.500 C 35.675 287.335,35.725 287.065,35.756 286.900 C 35.787 286.735,35.955 286.375,36.130 286.100 C 36.304 285.825,36.381 285.600,36.300 285.600 C 36.219 285.600,35.852 285.825,35.484 286.100 M30.589 300.017 C 30.459 300.228,30.554 300.400,30.800 300.400 C 31.046 300.400,31.136 300.580,31.000 300.800 C 30.864 301.020,30.924 301.200,31.134 301.200 C 31.343 301.200,31.612 300.945,31.732 300.633 C 31.980 299.988,30.950 299.433,30.589 300.017 M152.000 308.153 C 152.000 308.483,152.180 308.864,152.400 309.000 C 152.620 309.136,152.800 308.977,152.800 308.647 C 152.800 308.317,152.620 307.936,152.400 307.800 C 152.180 307.664,152.000 307.823,152.000 308.153 M30.800 335.400 C 31.074 335.730,31.450 336.000,31.636 336.000 C 31.823 336.000,31.871 335.730,31.745 335.400 C 31.618 335.070,31.242 334.800,30.908 334.800 C 30.415 334.800,30.395 334.912,30.800 335.400 M35.068 348.567 C 34.948 348.879,35.135 349.243,35.483 349.376 C 36.289 349.686,36.483 349.482,36.167 348.657 C 35.857 347.850,35.359 347.809,35.068 348.567 M143.067 354.667 C 142.666 355.068,142.746 355.681,143.166 355.421 C 143.367 355.297,143.619 355.421,143.725 355.698 C 143.831 355.974,143.899 355.795,143.874 355.300 C 143.829 354.392,143.556 354.177,143.067 354.667 M138.110 362.804 C 138.057 363.503,138.124 363.533,138.625 363.033 C 139.337 362.321,139.355 362.000,138.685 362.000 C 138.402 362.000,138.143 362.362,138.110 362.804 M131.700 369.823 C 131.120 370.453,131.041 371.200,131.553 371.200 C 131.861 371.200,132.510 369.565,132.284 369.358 C 132.238 369.315,131.975 369.525,131.700 369.823 M129.660 371.842 C 129.362 372.178,129.199 372.532,129.295 372.629 C 129.392 372.726,129.798 372.444,130.198 372.002 C 130.597 371.561,130.761 371.207,130.562 371.215 C 130.363 371.224,129.957 371.505,129.660 371.842 M52.590 372.648 C 52.947 373.004,53.359 373.174,53.507 373.026 C 53.656 372.878,53.512 372.589,53.188 372.384 C 52.243 371.787,51.887 371.944,52.590 372.648 M54.000 373.700 C 54.000 374.059,54.192 374.471,54.427 374.616 C 55.113 375.040,55.180 374.661,54.567 373.823 C 54.093 373.174,54.000 373.154,54.000 373.700 M64.208 380.976 C 65.164 381.698,65.722 381.767,65.512 381.137 C 65.427 380.882,64.921 380.607,64.387 380.525 C 63.443 380.381,63.438 380.394,64.208 380.976 M116.907 381.023 C 116.551 381.404,116.624 381.565,117.222 381.722 C 118.162 381.967,118.493 381.563,117.843 380.964 C 117.500 380.647,117.243 380.664,116.907 381.023 M86.080 388.149 C 86.436 388.815,86.576 388.869,86.727 388.399 C 86.833 388.070,87.092 387.688,87.303 387.550 C 87.513 387.413,87.222 387.300,86.655 387.300 C 85.730 387.300,85.671 387.386,86.080 388.149 M95.393 387.850 C 95.695 388.153,96.026 388.400,96.129 388.400 C 96.231 388.400,96.409 388.153,96.525 387.850 C 96.668 387.479,96.429 387.300,95.790 387.300 C 94.986 387.300,94.926 387.383,95.393 387.850 " stroke="none" fill="#549bfb" fill-rule="evenodd"></path><path id="path1" d="M95.983 31.076 C 94.417 32.724,94.375 32.809,95.643 31.776 C 96.891 30.759,98.249 29.200,97.887 29.200 C 97.821 29.200,96.964 30.044,95.983 31.076 M91.487 36.232 C 90.950 36.949,90.918 37.130,91.356 36.961 C 91.676 36.839,92.046 36.456,92.178 36.112 C 92.552 35.137,92.269 35.186,91.487 36.232 M68.382 89.234 C 67.867 90.196,68.256 90.873,68.816 89.988 C 69.208 89.368,69.329 88.400,69.014 88.400 C 68.912 88.400,68.627 88.775,68.382 89.234 M67.460 98.589 C 67.092 99.547,67.138 100.400,67.557 100.400 C 68.116 100.400,68.438 99.197,68.060 98.522 C 67.762 97.988,67.687 97.997,67.460 98.589 M397.670 99.418 C 397.711 100.068,397.913 100.823,398.117 101.095 C 398.322 101.367,398.385 101.862,398.257 102.195 C 398.130 102.528,398.210 102.800,398.437 102.800 C 398.700 102.800,398.751 102.112,398.578 100.900 C 398.270 98.743,397.553 97.573,397.670 99.418 M67.200 101.400 C 67.200 101.730,67.380 102.000,67.600 102.000 C 67.820 102.000,68.000 101.730,68.000 101.400 C 68.000 101.070,67.820 100.800,67.600 100.800 C 67.380 100.800,67.200 101.070,67.200 101.400 M66.909 106.000 C 66.909 106.990,66.987 107.395,67.082 106.900 C 67.178 106.405,67.178 105.595,67.082 105.100 C 66.987 104.605,66.909 105.010,66.909 106.000 M398.236 109.800 C 398.390 110.416,398.317 110.800,398.043 110.800 C 397.800 110.800,397.600 111.376,397.600 112.080 C 397.600 113.918,398.276 112.997,398.613 110.700 C 398.805 109.388,398.751 108.800,398.438 108.800 C 398.154 108.800,398.079 109.174,398.236 109.800 M67.280 111.341 C 67.280 113.086,67.839 114.084,68.237 113.048 C 68.409 112.599,68.302 112.184,67.958 111.966 C 67.620 111.752,67.582 111.610,67.863 111.606 C 68.127 111.603,68.236 111.258,68.116 110.800 C 67.786 109.539,67.280 109.866,67.280 111.341 M396.851 122.360 C 396.549 122.551,396.384 122.953,396.484 123.253 C 396.611 123.632,396.812 123.525,397.147 122.899 C 397.679 121.905,397.651 121.854,396.851 122.360 M91.200 175.063 C 91.200 175.290,91.560 175.802,92.000 176.200 C 92.440 176.598,92.800 176.799,92.800 176.645 C 92.800 176.492,92.440 175.980,92.000 175.508 C 91.560 175.036,91.200 174.835,91.200 175.063 M150.000 208.026 C 150.000 208.232,150.570 208.400,151.267 208.400 C 152.741 208.400,152.656 208.135,151.091 207.851 C 150.491 207.742,150.000 207.821,150.000 208.026 M80.976 215.387 C 80.467 215.773,79.219 215.979,77.349 215.987 C 75.315 215.996,74.355 216.172,74.000 216.600 C 73.685 216.979,72.803 217.200,71.600 217.200 C 70.397 217.200,69.515 217.421,69.200 217.800 C 68.926 218.130,68.206 218.400,67.600 218.400 C 66.994 218.400,66.274 218.670,66.000 219.000 C 65.726 219.330,64.916 219.600,64.200 219.600 C 63.484 219.600,62.674 219.870,62.400 220.200 C 62.126 220.530,61.294 220.800,60.551 220.800 C 59.808 220.800,59.200 220.966,59.200 221.168 C 59.200 221.371,58.660 221.655,58.000 221.800 C 57.340 221.945,56.800 222.229,56.800 222.432 C 56.800 222.634,56.462 222.800,56.049 222.800 C 55.636 222.800,55.074 223.070,54.800 223.400 C 54.526 223.730,53.986 224.000,53.600 224.000 C 53.214 224.000,52.674 224.270,52.400 224.600 C 52.126 224.930,51.586 225.200,51.200 225.200 C 50.814 225.200,50.274 225.470,50.000 225.800 C 49.726 226.130,49.209 226.403,48.851 226.407 C 48.493 226.411,47.776 226.861,47.258 227.407 C 46.740 227.953,46.097 228.400,45.830 228.400 C 45.563 228.400,44.739 228.940,44.000 229.600 C 43.261 230.260,42.457 230.800,42.214 230.800 C 41.971 230.800,40.808 231.777,39.628 232.971 C 38.449 234.165,37.096 235.240,36.621 235.359 C 35.594 235.617,23.864 247.304,23.656 248.276 C 23.577 248.646,22.992 249.469,22.356 250.105 C 21.720 250.741,21.200 251.497,21.200 251.784 C 21.200 252.071,20.480 253.026,19.600 253.906 C 18.720 254.786,17.997 255.752,17.993 256.053 C 17.989 256.354,17.179 257.460,16.193 258.512 C 15.133 259.642,14.400 260.803,14.400 261.352 C 14.400 261.863,13.950 263.127,13.400 264.162 C 12.850 265.196,12.400 266.226,12.400 266.450 C 12.400 266.674,12.130 267.127,11.800 267.457 C 11.470 267.787,11.200 268.404,11.200 268.829 C 11.200 269.253,11.057 269.600,10.883 269.600 C 10.709 269.600,10.074 270.635,9.472 271.900 C 8.870 273.165,8.228 274.470,8.045 274.800 C 6.785 277.079,6.400 278.048,6.400 278.938 C 6.400 279.496,6.220 280.064,6.000 280.200 C 5.780 280.336,5.600 281.495,5.600 282.775 C 5.600 284.355,5.408 285.262,5.000 285.600 C 4.670 285.874,4.400 286.684,4.400 287.400 C 4.400 288.116,4.130 288.926,3.800 289.200 C 3.439 289.500,3.200 290.375,3.200 291.400 C 3.200 292.425,2.961 293.300,2.600 293.600 C 2.172 293.955,1.996 294.915,1.987 296.949 C 1.979 298.819,1.773 300.067,1.387 300.576 C 0.981 301.113,0.800 302.371,0.800 304.653 C 0.800 306.468,0.620 308.064,0.400 308.200 C -0.142 308.535,-0.142 326.665,0.400 327.000 C 0.620 327.136,0.800 328.822,0.800 330.747 C 0.800 333.205,0.975 334.478,1.387 335.024 C 1.764 335.521,1.979 336.759,1.987 338.471 C 1.996 340.299,2.190 341.332,2.600 341.743 C 2.954 342.096,3.200 343.074,3.200 344.122 C 3.200 345.216,3.431 346.094,3.800 346.400 C 4.130 346.674,4.400 347.512,4.400 348.262 C 4.400 349.105,4.629 349.713,5.000 349.855 C 5.446 350.026,5.600 350.736,5.600 352.619 C 5.600 354.013,5.780 355.264,6.000 355.400 C 6.220 355.536,6.400 356.081,6.400 356.611 C 6.400 357.604,7.916 360.896,8.482 361.133 C 8.657 361.207,8.800 361.590,8.800 361.984 C 8.800 362.379,9.070 362.926,9.400 363.200 C 9.730 363.474,10.000 364.014,10.000 364.400 C 10.000 364.786,10.270 365.326,10.600 365.600 C 10.930 365.874,11.200 366.414,11.200 366.800 C 11.200 367.186,11.470 367.726,11.800 368.000 C 12.130 368.274,12.400 368.736,12.400 369.028 C 12.400 369.319,12.850 370.404,13.400 371.438 C 13.950 372.473,14.400 373.732,14.400 374.238 C 14.400 374.809,15.079 375.793,16.200 376.843 C 17.190 377.771,18.000 378.824,18.000 379.184 C 18.000 379.543,18.720 380.541,19.600 381.400 C 20.480 382.259,21.200 383.252,21.200 383.606 C 21.200 383.961,21.740 384.768,22.400 385.400 C 23.060 386.032,23.600 386.815,23.600 387.138 C 23.600 387.887,35.720 400.000,36.469 400.000 C 36.776 400.000,38.005 400.990,39.200 402.200 C 40.395 403.410,41.660 404.400,42.011 404.400 C 42.363 404.400,43.168 404.940,43.800 405.600 C 44.432 406.260,45.242 406.800,45.600 406.800 C 45.958 406.800,46.768 407.340,47.400 408.000 C 48.032 408.660,48.876 409.200,49.275 409.200 C 49.674 409.200,50.000 409.366,50.000 409.568 C 50.000 409.771,50.540 410.055,51.200 410.200 C 51.860 410.345,52.400 410.629,52.400 410.832 C 52.400 411.034,52.738 411.200,53.151 411.200 C 53.564 411.200,54.126 411.470,54.400 411.800 C 54.674 412.130,55.214 412.400,55.600 412.400 C 55.986 412.400,56.526 412.670,56.800 413.000 C 57.074 413.330,57.614 413.600,58.000 413.600 C 58.386 413.600,58.926 413.870,59.200 414.200 C 59.474 414.530,60.229 414.800,60.878 414.800 C 61.526 414.800,62.327 415.070,62.657 415.400 C 62.987 415.730,63.739 416.006,64.329 416.013 C 64.918 416.020,65.749 416.290,66.176 416.613 C 66.604 416.936,67.448 417.200,68.053 417.200 C 68.658 417.200,69.264 417.380,69.400 417.600 C 69.536 417.820,70.542 418.000,71.636 418.000 C 73.035 418.000,73.693 418.178,73.855 418.600 C 74.033 419.062,74.800 419.200,77.194 419.200 C 79.469 419.200,80.436 419.361,80.800 419.800 C 81.240 420.330,91.197 420.400,166.000 420.400 C 240.803 420.400,250.760 420.330,251.200 419.800 C 251.552 419.376,252.483 419.200,254.373 419.200 C 256.105 419.200,257.321 418.993,257.824 418.613 C 258.251 418.290,259.444 418.020,260.476 418.013 C 261.508 418.006,262.464 417.820,262.600 417.600 C 262.736 417.380,263.342 417.200,263.947 417.200 C 264.552 417.200,265.396 416.936,265.824 416.613 C 266.251 416.290,267.061 416.020,267.624 416.013 C 268.186 416.006,268.996 415.736,269.424 415.413 C 269.851 415.090,270.673 414.820,271.251 414.813 C 271.829 414.806,272.526 414.530,272.800 414.200 C 273.074 413.870,273.614 413.600,274.000 413.600 C 274.386 413.600,274.926 413.330,275.200 413.000 C 275.474 412.670,276.014 412.400,276.400 412.400 C 276.786 412.400,277.326 412.130,277.600 411.800 C 277.874 411.470,278.331 411.200,278.617 411.200 C 279.247 411.200,281.748 409.918,281.933 409.500 C 282.007 409.335,282.378 409.200,282.758 409.200 C 283.139 409.200,283.968 408.660,284.600 408.000 C 285.232 407.340,286.042 406.800,286.400 406.800 C 286.758 406.800,287.568 406.260,288.200 405.600 C 288.832 404.940,289.637 404.400,289.989 404.400 C 290.340 404.400,291.605 403.410,292.800 402.200 C 293.995 400.990,295.228 400.000,295.539 400.000 C 296.175 400.000,307.200 389.117,307.200 388.489 C 307.200 388.268,308.010 387.186,309.000 386.084 C 309.990 384.983,310.800 383.830,310.800 383.522 C 310.800 383.214,311.520 382.259,312.400 381.400 C 313.280 380.541,314.000 379.548,314.000 379.194 C 314.000 378.839,314.540 378.032,315.200 377.400 C 315.860 376.768,316.400 375.939,316.400 375.558 C 316.400 375.178,316.548 374.807,316.728 374.733 C 317.140 374.566,319.600 369.643,319.600 368.985 C 319.600 368.717,319.870 368.274,320.200 368.000 C 320.530 367.726,320.800 367.186,320.800 366.800 C 320.800 366.414,321.070 365.874,321.400 365.600 C 321.730 365.326,322.000 364.786,322.000 364.400 C 322.000 364.014,322.270 363.474,322.600 363.200 C 322.930 362.926,323.200 362.379,323.200 361.984 C 323.200 361.590,323.343 361.207,323.518 361.133 C 324.233 360.834,325.600 357.470,325.600 356.011 C 325.600 355.151,325.780 354.336,326.000 354.200 C 326.220 354.064,326.400 353.083,326.400 352.019 C 326.400 350.669,326.581 350.016,327.000 349.855 C 327.371 349.713,327.600 349.105,327.600 348.262 C 327.600 347.512,327.870 346.674,328.200 346.400 C 328.569 346.094,328.800 345.216,328.800 344.122 C 328.800 343.074,329.046 342.096,329.400 341.743 C 329.810 341.332,330.004 340.299,330.013 338.471 C 330.021 336.759,330.236 335.521,330.613 335.024 C 331.020 334.485,331.204 333.198,331.213 330.824 C 331.222 328.449,331.405 327.162,331.813 326.624 C 332.674 325.485,332.674 309.715,331.813 308.576 C 331.405 308.037,331.222 306.748,331.213 304.349 C 331.203 301.781,331.046 300.771,330.600 300.400 C 330.168 300.041,330.000 299.092,330.000 297.000 C 330.000 294.908,329.832 293.959,329.400 293.600 C 329.037 293.298,328.800 292.423,328.800 291.380 C 328.800 290.382,328.548 289.405,328.200 289.057 C 327.870 288.727,327.600 287.926,327.600 287.278 C 327.600 286.629,327.330 285.874,327.000 285.600 C 326.619 285.283,326.400 284.400,326.400 283.175 C 326.400 282.115,326.220 281.136,326.000 281.000 C 325.780 280.864,325.600 280.116,325.600 279.338 C 325.600 278.560,325.344 277.446,325.031 276.862 C 324.719 276.278,324.356 275.530,324.226 275.200 C 324.096 274.870,323.542 273.807,322.995 272.837 C 322.448 271.867,322.000 270.827,322.000 270.525 C 322.000 270.222,321.730 269.871,321.400 269.745 C 321.070 269.618,320.800 269.187,320.800 268.786 C 320.800 268.385,320.530 267.787,320.200 267.457 C 319.870 267.127,319.600 266.681,319.600 266.465 C 319.600 266.099,317.951 262.533,317.166 261.200 C 316.971 260.870,316.564 260.060,316.261 259.400 C 315.958 258.740,315.326 257.857,314.855 257.438 C 314.385 257.019,314.000 256.413,314.000 256.091 C 314.000 255.769,313.280 254.786,312.400 253.906 C 311.520 253.026,310.800 252.066,310.800 251.772 C 310.800 251.479,310.195 250.645,309.456 249.919 C 308.717 249.194,307.854 248.099,307.538 247.486 C 306.765 245.988,296.504 235.687,295.452 235.353 C 294.993 235.207,293.645 234.123,292.456 232.944 C 291.268 231.765,290.081 230.800,289.820 230.800 C 289.558 230.800,288.739 230.260,288.000 229.600 C 287.261 228.940,286.437 228.400,286.170 228.400 C 285.903 228.400,285.260 227.953,284.742 227.407 C 284.224 226.861,283.507 226.411,283.149 226.407 C 282.791 226.403,282.274 226.130,282.000 225.800 C 281.726 225.470,281.186 225.200,280.800 225.200 C 280.414 225.200,279.874 224.930,279.600 224.600 C 279.326 224.270,278.786 224.000,278.400 224.000 C 278.014 224.000,277.474 223.730,277.200 223.400 C 276.926 223.070,276.379 222.800,275.984 222.800 C 275.590 222.800,275.207 222.665,275.133 222.500 C 274.871 221.910,272.314 220.800,271.217 220.800 C 270.601 220.800,269.874 220.530,269.600 220.200 C 269.326 219.870,268.516 219.600,267.800 219.600 C 267.084 219.600,266.274 219.330,266.000 219.000 C 265.726 218.670,265.006 218.400,264.400 218.400 C 263.794 218.400,263.074 218.130,262.800 217.800 C 262.479 217.413,261.573 217.195,260.251 217.187 C 259.086 217.180,257.865 216.921,257.424 216.587 C 256.945 216.225,255.717 215.995,254.224 215.987 C 252.730 215.979,251.502 215.749,251.024 215.387 C 249.848 214.498,82.152 214.498,80.976 215.387 M89.592 247.409 C 89.170 247.918,89.194 247.977,89.743 247.766 C 90.105 247.628,90.400 247.374,90.400 247.202 C 90.400 246.673,91.772 246.964,92.276 247.600 C 92.678 248.107,92.885 248.118,93.617 247.670 C 94.094 247.379,94.377 247.314,94.246 247.525 C 93.902 248.082,95.412 248.388,98.526 248.395 C 100.026 248.398,101.622 248.598,102.075 248.840 C 102.672 249.160,102.822 249.160,102.625 248.840 C 102.475 248.598,102.543 248.400,102.776 248.400 C 103.009 248.400,103.200 248.557,103.200 248.749 C 103.200 248.941,103.920 249.213,104.800 249.354 C 105.680 249.494,106.400 249.787,106.400 250.005 C 106.400 250.222,107.098 250.400,107.951 250.400 C 108.842 250.400,109.714 250.655,110.000 251.000 C 110.274 251.330,110.814 251.600,111.200 251.600 C 111.586 251.600,112.130 251.874,112.408 252.210 C 112.686 252.545,113.009 252.724,113.125 252.608 C 113.241 252.492,113.778 252.686,114.317 253.040 C 115.028 253.506,115.222 253.534,115.020 253.141 C 114.866 252.844,114.999 252.915,115.314 253.300 C 115.630 253.685,116.106 254.000,116.373 254.000 C 116.639 254.000,117.137 254.280,117.480 254.623 C 117.823 254.966,118.350 255.151,118.652 255.036 C 118.963 254.916,119.200 255.079,119.200 255.413 C 119.200 255.750,119.583 256.007,120.100 256.017 C 120.595 256.026,121.442 256.566,121.981 257.217 C 122.521 257.868,123.200 258.400,123.490 258.400 C 123.780 258.400,124.779 259.088,125.709 259.928 C 126.639 260.769,128.076 261.864,128.902 262.362 C 129.729 262.861,130.296 263.445,130.162 263.661 C 130.029 263.877,130.253 263.996,130.660 263.927 C 131.159 263.841,131.365 264.012,131.294 264.452 C 131.230 264.841,131.545 265.197,132.076 265.336 C 132.565 265.464,132.847 265.687,132.702 265.831 C 132.557 265.976,133.062 266.748,133.824 267.547 C 134.990 268.771,135.275 268.905,135.630 268.400 C 135.966 267.923,136.003 267.976,135.812 268.660 C 135.640 269.274,135.918 269.899,136.786 270.849 C 137.454 271.580,138.000 272.368,138.000 272.600 C 138.000 272.832,138.580 273.647,139.288 274.411 C 139.997 275.175,140.537 275.935,140.488 276.100 C 140.440 276.265,140.572 276.400,140.781 276.400 C 140.991 276.400,141.461 277.028,141.825 277.796 C 142.190 278.565,142.624 279.109,142.791 279.006 C 142.958 278.902,143.095 279.129,143.096 279.509 C 143.099 280.626,143.660 282.000,144.113 282.000 C 144.344 282.000,144.422 282.111,144.286 282.248 C 144.150 282.384,144.301 282.758,144.623 283.080 C 144.944 283.401,145.106 283.828,144.983 284.028 C 144.859 284.227,145.038 284.284,145.379 284.153 C 145.721 284.022,146.000 284.114,146.000 284.357 C 146.000 284.601,145.775 284.814,145.500 284.832 C 145.100 284.857,145.100 284.904,145.500 285.065 C 145.775 285.176,146.000 285.691,146.000 286.210 C 146.000 286.728,146.181 287.265,146.403 287.402 C 146.624 287.539,147.089 288.199,147.436 288.869 C 147.782 289.540,147.873 289.969,147.638 289.823 C 147.374 289.660,147.301 289.797,147.447 290.179 C 147.578 290.521,147.846 290.800,148.043 290.800 C 148.239 290.800,148.400 291.243,148.400 291.784 C 148.400 292.326,148.643 292.995,148.939 293.272 C 149.236 293.550,149.395 294.096,149.293 294.487 C 149.191 294.879,149.373 295.604,149.698 296.100 C 150.161 296.807,150.585 298.915,150.790 301.524 C 150.796 301.592,150.980 301.536,151.200 301.400 C 151.578 301.167,151.762 303.099,151.663 306.262 C 151.639 307.032,151.853 307.611,152.212 307.749 C 152.994 308.050,153.096 325.944,152.320 326.720 C 151.947 327.093,151.969 327.201,152.420 327.206 C 152.915 327.211,152.912 327.268,152.403 327.590 C 151.997 327.846,151.780 328.746,151.725 330.397 C 151.681 331.733,151.365 333.388,151.023 334.075 C 150.680 334.761,150.400 335.932,150.400 336.676 C 150.400 337.419,150.109 338.472,149.754 339.015 C 149.398 339.557,149.199 340.354,149.312 340.786 C 149.425 341.218,149.266 341.779,148.959 342.034 C 148.651 342.289,148.400 343.022,148.400 343.662 C 148.400 344.327,148.143 344.924,147.800 345.055 C 147.466 345.183,147.200 345.778,147.200 346.394 C 147.200 347.003,146.950 347.710,146.644 347.964 C 145.939 348.549,145.601 350.711,146.171 350.995 C 146.407 351.112,146.195 351.134,145.700 351.042 C 144.853 350.885,144.503 351.719,144.753 353.300 C 144.779 353.465,144.575 353.555,144.300 353.500 C 143.964 353.433,143.828 353.859,143.886 354.800 C 143.939 355.678,143.847 356.000,143.639 355.663 C 143.291 355.101,141.600 357.018,141.600 357.974 C 141.600 358.222,141.330 358.529,141.000 358.655 C 140.670 358.782,140.400 359.081,140.400 359.321 C 140.400 359.560,139.916 360.261,139.325 360.878 C 138.734 361.495,138.464 362.000,138.725 362.000 C 138.986 362.000,139.200 362.199,139.200 362.443 C 139.200 362.686,138.939 362.786,138.620 362.663 C 138.233 362.515,138.115 362.633,138.263 363.020 C 138.386 363.339,138.284 363.600,138.037 363.600 C 137.370 363.600,135.225 366.095,135.212 366.887 C 135.204 367.369,134.991 367.500,134.500 367.324 C 134.115 367.186,133.933 367.220,134.097 367.399 C 134.460 367.800,133.638 368.871,133.183 368.590 C 133.004 368.479,132.742 368.754,132.600 369.200 C 132.458 369.646,132.192 369.919,132.009 369.805 C 131.825 369.692,131.769 369.959,131.884 370.399 C 132.001 370.847,131.896 371.200,131.647 371.200 C 131.401 371.200,131.200 370.990,131.200 370.733 C 131.200 370.135,130.606 370.712,130.582 371.333 C 130.572 371.590,130.347 371.755,130.082 371.700 C 129.817 371.645,129.645 371.825,129.700 372.100 C 129.755 372.375,129.553 372.548,129.251 372.484 C 128.891 372.407,128.788 372.591,128.951 373.017 C 129.112 373.436,129.023 373.606,128.700 373.495 C 128.425 373.400,127.326 374.105,126.257 375.061 C 125.188 376.018,124.097 376.800,123.832 376.800 C 123.567 376.800,122.832 377.340,122.200 378.000 C 121.568 378.660,120.726 379.200,120.329 379.200 C 119.932 379.200,119.393 379.542,119.132 379.960 C 118.871 380.378,118.419 380.629,118.129 380.517 C 117.838 380.406,117.600 380.514,117.600 380.757 C 117.600 381.001,117.791 381.200,118.024 381.200 C 118.257 381.200,118.361 381.339,118.257 381.508 C 118.152 381.678,117.433 381.787,116.660 381.751 C 115.776 381.709,115.173 381.892,115.039 382.242 C 114.921 382.549,114.467 382.800,114.028 382.800 C 113.590 382.800,113.005 383.043,112.728 383.339 C 112.450 383.636,111.930 383.802,111.571 383.708 C 111.213 383.615,110.635 383.822,110.288 384.169 C 109.941 384.516,109.140 384.800,108.509 384.800 C 107.877 384.800,107.144 385.016,106.880 385.280 C 106.616 385.544,106.400 385.645,106.400 385.504 C 106.400 385.363,105.928 385.492,105.351 385.791 C 104.775 386.091,103.960 386.269,103.541 386.189 C 103.122 386.108,102.876 386.200,102.996 386.393 C 103.115 386.587,103.030 386.858,102.807 386.996 C 102.583 387.134,102.400 387.050,102.400 386.810 C 102.400 386.501,102.172 386.494,101.626 386.786 C 101.201 387.014,99.935 387.200,98.814 387.200 C 97.370 387.200,96.708 387.375,96.545 387.800 C 96.418 388.130,96.134 388.400,95.914 388.400 C 95.694 388.400,95.600 388.175,95.706 387.900 C 96.004 387.121,93.655 387.123,92.334 387.903 C 91.339 388.490,91.065 388.508,90.304 388.033 C 88.770 387.075,86.473 387.155,86.673 388.160 C 86.835 388.974,86.820 388.973,86.171 388.100 C 85.606 387.340,85.127 387.200,83.083 387.200 C 81.370 387.200,80.444 387.002,79.914 386.522 C 79.211 385.886,79.181 385.886,79.426 386.522 C 79.573 386.908,79.495 387.200,79.243 387.200 C 78.999 387.200,78.800 386.919,78.800 386.576 C 78.800 386.233,78.657 386.041,78.482 386.149 C 78.308 386.257,77.388 385.998,76.439 385.573 C 75.489 385.148,74.269 384.800,73.728 384.800 C 73.186 384.800,72.457 384.514,72.107 384.164 C 71.714 383.771,71.031 383.593,70.318 383.697 C 69.403 383.832,69.215 383.739,69.404 383.245 C 69.535 382.904,69.512 382.755,69.353 382.914 C 69.194 383.073,68.603 382.901,68.040 382.532 C 67.477 382.163,66.473 381.742,65.808 381.597 C 65.144 381.452,64.643 381.129,64.695 380.881 C 64.748 380.631,64.524 380.531,64.195 380.657 C 63.868 380.783,63.600 380.676,63.600 380.419 C 63.600 380.163,63.420 380.064,63.200 380.200 C 62.980 380.336,62.800 380.156,62.800 379.800 C 62.800 379.444,62.642 379.251,62.448 379.370 C 62.255 379.490,61.310 378.962,60.348 378.198 C 59.387 377.433,58.388 376.806,58.129 376.804 C 57.870 376.802,57.324 376.395,56.917 375.900 C 55.889 374.652,53.946 373.054,54.807 374.165 C 55.332 374.842,55.331 374.908,54.800 374.734 C 54.470 374.626,54.142 374.144,54.071 373.663 C 54.001 373.182,53.774 372.892,53.568 373.020 C 53.362 373.147,52.912 372.970,52.568 372.626 C 52.224 372.281,52.079 372.000,52.246 372.000 C 52.413 372.000,52.038 371.466,51.414 370.814 C 50.789 370.162,50.159 369.701,50.015 369.791 C 49.871 369.880,49.315 369.424,48.781 368.777 C 48.246 368.129,47.582 367.600,47.304 367.600 C 47.027 367.600,46.799 367.195,46.798 366.700 C 46.797 366.205,46.283 365.253,45.656 364.583 C 45.029 363.914,44.064 362.652,43.512 361.778 C 42.960 360.903,42.214 359.944,41.854 359.645 C 41.494 359.346,41.200 358.868,41.200 358.582 C 41.200 358.296,40.734 357.508,40.164 356.831 C 39.595 356.154,39.280 355.597,39.464 355.594 C 39.649 355.591,39.620 355.456,39.400 355.294 C 39.180 355.132,38.550 354.115,38.000 353.034 C 36.323 349.737,36.230 349.600,35.504 349.369 C 34.996 349.208,34.895 348.960,35.142 348.473 C 35.524 347.719,34.973 345.200,34.426 345.200 C 34.233 345.200,34.169 344.840,34.284 344.401 C 34.399 343.961,34.202 343.157,33.846 342.615 C 33.491 342.072,33.200 341.206,33.200 340.691 C 33.200 340.175,32.936 339.404,32.613 338.976 C 32.290 338.549,32.020 337.779,32.013 337.264 C 32.006 336.749,31.595 335.990,31.100 335.577 C 30.235 334.856,30.231 334.825,31.000 334.782 C 31.440 334.757,31.575 334.646,31.300 334.535 C 30.996 334.413,30.800 333.570,30.800 332.390 C 30.800 331.322,30.619 330.336,30.399 330.199 C 30.178 330.063,30.102 329.532,30.231 329.019 C 30.360 328.507,30.265 327.964,30.021 327.813 C 29.285 327.358,29.481 306.820,30.225 306.535 C 31.051 306.218,30.937 305.583,30.100 305.843 C 29.495 306.031,29.486 306.005,30.028 305.651 C 30.441 305.381,30.688 304.526,30.751 303.145 C 30.803 301.992,30.937 300.903,31.047 300.724 C 31.157 300.546,31.046 300.400,30.800 300.400 C 30.554 300.400,30.459 300.228,30.589 300.017 C 30.719 299.807,31.053 299.722,31.330 299.829 C 31.672 299.960,31.868 299.537,31.936 298.522 C 31.992 297.697,32.299 296.733,32.619 296.380 C 32.938 296.026,33.200 295.250,33.200 294.654 C 33.200 294.059,33.485 293.137,33.833 292.606 C 34.183 292.072,34.357 291.293,34.221 290.867 C 34.061 290.361,34.198 290.010,34.619 289.848 C 35.097 289.665,35.230 289.173,35.141 287.931 C 35.058 286.790,35.193 286.202,35.566 286.078 C 35.895 285.968,36.000 286.076,35.832 286.348 C 35.678 286.597,35.763 286.800,36.019 286.800 C 36.276 286.800,36.387 286.543,36.267 286.229 C 36.146 285.915,36.311 285.440,36.633 285.172 C 36.956 284.905,37.130 284.597,37.021 284.488 C 36.913 284.379,37.178 283.792,37.612 283.183 C 38.045 282.575,38.400 281.789,38.400 281.438 C 38.400 281.087,38.584 280.800,38.810 280.800 C 39.035 280.800,39.398 280.395,39.615 279.900 C 39.832 279.405,40.364 278.415,40.797 277.700 C 41.230 276.985,41.469 276.400,41.330 276.400 C 41.190 276.400,41.516 275.995,42.055 275.500 C 43.291 274.364,44.383 272.936,43.705 273.344 C 43.365 273.548,43.286 273.441,43.454 273.004 C 43.589 272.653,43.789 272.456,43.899 272.566 C 44.136 272.803,47.192 269.189,47.078 268.807 C 46.967 268.435,51.977 263.600,52.473 263.600 C 52.700 263.600,52.774 263.310,52.638 262.955 C 52.464 262.501,52.564 262.377,52.975 262.535 C 53.335 262.673,53.658 262.449,53.816 261.951 C 53.969 261.468,54.300 261.229,54.636 261.359 C 54.980 261.490,55.200 261.319,55.200 260.921 C 55.200 260.561,55.324 260.390,55.475 260.541 C 55.626 260.693,56.408 260.173,57.213 259.387 C 58.018 258.602,58.862 258.013,59.090 258.079 C 59.317 258.146,59.975 257.696,60.552 257.080 C 61.128 256.464,62.237 255.693,63.016 255.368 C 63.795 255.042,64.324 254.601,64.193 254.388 C 64.061 254.175,64.143 254.000,64.376 254.000 C 64.609 254.000,64.814 254.225,64.832 254.500 C 64.857 254.900,64.904 254.900,65.065 254.500 C 65.176 254.225,65.449 254.000,65.672 254.000 C 65.894 254.000,66.575 253.645,67.183 253.212 C 67.792 252.778,68.399 252.533,68.533 252.666 C 68.666 252.799,69.224 252.614,69.773 252.254 C 70.323 251.894,71.026 251.600,71.337 251.600 C 71.648 251.600,72.126 251.330,72.400 251.000 C 72.674 250.670,73.493 250.400,74.220 250.400 C 74.948 250.400,75.781 250.175,76.071 249.900 C 76.362 249.625,76.960 249.346,77.400 249.281 C 78.791 249.074,79.258 248.818,79.002 248.403 C 78.865 248.181,79.044 248.000,79.400 248.000 C 79.756 248.000,79.936 248.180,79.800 248.400 C 79.664 248.620,79.743 248.800,79.976 248.800 C 80.209 248.800,80.400 248.665,80.399 248.500 C 80.399 248.335,81.794 248.247,83.499 248.304 C 85.900 248.385,86.961 248.235,88.200 247.637 C 90.199 246.672,90.205 246.671,89.592 247.409 M96.574 247.642 C 96.204 248.241,95.206 248.050,95.446 247.425 C 95.567 247.109,95.920 246.948,96.231 247.067 C 96.541 247.186,96.696 247.445,96.574 247.642 " stroke="none" fill="#fcfcfc" fill-rule="evenodd"></path></g></svg>